<svg width="290" height="208" viewBox="0 0 290 208" fill="none" xmlns="http://www.w3.org/2000/svg">
<path fill-rule="evenodd" clip-rule="evenodd" d="M1.80861 1.9815H283.669V209.235H1.80861V1.9815Z" fill="#E9EDEF"/>
<path fill-rule="evenodd" clip-rule="evenodd" d="M1.82765 1.98142H286.655V4.35073H1.82765V1.98142Z" fill="#18CFAB"/>
<g clip-path="url(#clip0_2143_230)">
<rect x="102" y="48" width="41" height="40" rx="20" stroke="#18CFAB"/>
<path fill-rule="evenodd" clip-rule="evenodd" d="M127.913 63.7282L126.095 61.8913C125.29 61.0809 123.983 61.0759 123.177 61.8826L121.159 63.8926C120.352 64.6989 120.348 66.0103 121.151 66.8207L122.304 65.689C122.187 65.3284 122.33 64.9153 122.616 64.6295L123.899 63.3519C124.306 62.9462 124.958 62.9491 125.36 63.3543L126.451 64.458C126.853 64.8628 126.851 65.5171 126.447 65.9232L125.163 67.2024C124.892 67.473 124.446 67.6217 124.1 67.5263L122.971 68.6589C123.775 69.4718 125.08 69.4747 125.889 68.6684L127.904 66.6592C128.714 65.8525 128.717 64.5398 127.913 63.7282ZM120.526 71.0918C120.622 71.4441 120.469 71.8997 120.191 72.1777L118.992 73.3752C118.581 73.7845 117.916 73.7833 117.507 73.369L116.393 72.2475C115.985 71.8349 115.987 71.1633 116.398 70.7547L117.598 69.5577C117.89 69.2661 118.31 69.1202 118.677 69.2438L119.834 68.0715C119.015 67.2462 117.682 67.2421 116.861 68.0632L114.915 70.0042C114.092 70.8266 114.088 72.1629 114.907 72.9886L116.758 74.8618C117.576 75.6846 118.907 75.6912 119.731 74.8701L121.676 72.9287C122.499 72.1054 122.502 70.7717 121.686 69.9443L120.526 71.0918ZM120.258 70.5631C119.98 70.8419 119.534 70.8411 119.262 70.5581C118.988 70.2743 118.99 69.8204 119.266 69.5399L122.591 66.1611C122.867 65.8823 123.312 65.8831 123.585 66.164C123.86 66.4457 123.859 66.9009 123.582 67.183L120.258 70.5631Z" fill="#1FDAB5"/>
<path fill-rule="evenodd" clip-rule="evenodd" d="M167.597 47.998C178.865 47.998 188 56.9523 188 67.9979C188 79.0432 178.865 87.9979 167.597 87.9979C156.329 87.9979 147.195 79.0432 147.195 67.9979C147.195 56.9523 156.329 47.998 167.597 47.998Z" fill="#18CFAB"/>
<rect x="161" y="63" width="12" height="11" fill="white"/>
</g>
<path d="M121.857 151.626L118.977 160.133H118.32L115.684 152.501L113.034 160.133H112.378L109.486 151.626H110.142L112.731 159.282L115.392 151.626H115.987L118.636 159.294L121.249 151.626H121.857ZM128.321 157.107H122.865C122.881 157.601 123.007 158.043 123.242 158.431C123.476 158.812 123.792 159.108 124.189 159.319C124.594 159.529 125.048 159.634 125.55 159.634C125.964 159.634 126.344 159.562 126.693 159.416C127.049 159.262 127.345 159.039 127.58 158.747L127.932 159.148C127.657 159.481 127.308 159.736 126.887 159.914C126.474 160.092 126.024 160.181 125.538 160.181C124.906 160.181 124.343 160.044 123.849 159.768C123.355 159.493 122.966 159.112 122.683 158.626C122.407 158.14 122.269 157.585 122.269 156.961C122.269 156.345 122.399 155.794 122.658 155.308C122.926 154.814 123.29 154.429 123.752 154.154C124.214 153.879 124.732 153.741 125.307 153.741C125.883 153.741 126.397 153.879 126.851 154.154C127.312 154.421 127.673 154.798 127.932 155.284C128.2 155.77 128.333 156.321 128.333 156.937L128.321 157.107ZM125.307 154.276C124.862 154.276 124.461 154.377 124.104 154.579C123.748 154.774 123.46 155.053 123.242 155.418C123.031 155.774 122.909 156.179 122.877 156.633H127.738C127.713 156.179 127.592 155.774 127.373 155.418C127.154 155.061 126.867 154.782 126.51 154.579C126.154 154.377 125.753 154.276 125.307 154.276ZM133.397 153.741C133.988 153.741 134.523 153.879 135.001 154.154C135.479 154.421 135.851 154.802 136.119 155.296C136.394 155.782 136.532 156.337 136.532 156.961C136.532 157.585 136.394 158.14 136.119 158.626C135.851 159.112 135.479 159.493 135.001 159.768C134.523 160.044 133.988 160.181 133.397 160.181C132.83 160.181 132.315 160.048 131.853 159.78C131.4 159.505 131.047 159.124 130.796 158.638V160.133H130.213V151.116H130.82V155.236C131.072 154.766 131.424 154.401 131.878 154.142C132.331 153.874 132.838 153.741 133.397 153.741ZM133.36 159.634C133.846 159.634 134.284 159.521 134.673 159.294C135.061 159.067 135.365 158.751 135.584 158.346C135.811 157.941 135.924 157.48 135.924 156.961C135.924 156.443 135.811 155.981 135.584 155.576C135.365 155.171 135.061 154.855 134.673 154.628C134.284 154.401 133.846 154.288 133.36 154.288C132.874 154.288 132.437 154.401 132.048 154.628C131.667 154.855 131.363 155.171 131.136 155.576C130.918 155.981 130.808 156.443 130.808 156.961C130.808 157.48 130.918 157.941 131.136 158.346C131.363 158.751 131.667 159.067 132.048 159.294C132.437 159.521 132.874 159.634 133.36 159.634ZM141.728 151.626H145.094C145.977 151.626 146.759 151.809 147.44 152.173C148.128 152.538 148.663 153.044 149.044 153.692C149.425 154.332 149.615 155.061 149.615 155.88C149.615 156.698 149.425 157.431 149.044 158.079C148.663 158.719 148.128 159.221 147.44 159.586C146.759 159.95 145.977 160.133 145.094 160.133H141.728V151.626ZM145.046 159.574C145.832 159.574 146.524 159.42 147.124 159.112C147.723 158.796 148.185 158.359 148.509 157.8C148.833 157.241 148.995 156.601 148.995 155.88C148.995 155.159 148.833 154.519 148.509 153.96C148.185 153.401 147.723 152.967 147.124 152.659C146.524 152.343 145.832 152.185 145.046 152.185H142.348V159.574H145.046ZM156.932 157.107H151.476C151.492 157.601 151.618 158.043 151.853 158.431C152.088 158.812 152.404 159.108 152.801 159.319C153.206 159.529 153.66 159.634 154.162 159.634C154.575 159.634 154.956 159.562 155.304 159.416C155.661 159.262 155.956 159.039 156.191 158.747L156.544 159.148C156.268 159.481 155.92 159.736 155.498 159.914C155.085 160.092 154.636 160.181 154.15 160.181C153.518 160.181 152.955 160.044 152.461 159.768C151.966 159.493 151.578 159.112 151.294 158.626C151.019 158.14 150.881 157.585 150.881 156.961C150.881 156.345 151.01 155.794 151.27 155.308C151.537 154.814 151.902 154.429 152.363 154.154C152.825 153.879 153.344 153.741 153.919 153.741C154.494 153.741 155.008 153.879 155.462 154.154C155.924 154.421 156.284 154.798 156.544 155.284C156.811 155.77 156.945 156.321 156.945 156.937L156.932 157.107ZM153.919 154.276C153.473 154.276 153.072 154.377 152.716 154.579C152.359 154.774 152.072 155.053 151.853 155.418C151.642 155.774 151.521 156.179 151.488 156.633H156.349C156.325 156.179 156.203 155.774 155.985 155.418C155.766 155.061 155.478 154.782 155.122 154.579C154.765 154.377 154.364 154.276 153.919 154.276ZM160.428 160.181C159.918 160.181 159.432 160.104 158.97 159.95C158.508 159.796 158.148 159.602 157.889 159.367L158.168 158.881C158.427 159.1 158.759 159.282 159.164 159.428C159.578 159.574 160.007 159.647 160.453 159.647C161.093 159.647 161.562 159.541 161.862 159.331C162.17 159.12 162.324 158.828 162.324 158.456C162.324 158.188 162.239 157.978 162.069 157.824C161.907 157.67 161.704 157.557 161.461 157.484C161.218 157.411 160.882 157.334 160.453 157.253C159.95 157.164 159.545 157.066 159.237 156.961C158.93 156.856 158.666 156.686 158.447 156.451C158.229 156.216 158.119 155.892 158.119 155.479C158.119 154.976 158.326 154.563 158.739 154.239C159.16 153.907 159.756 153.741 160.525 153.741C160.931 153.741 161.332 153.798 161.728 153.911C162.125 154.024 162.449 154.174 162.701 154.361L162.421 154.847C162.162 154.66 161.866 154.519 161.534 154.421C161.202 154.324 160.862 154.276 160.513 154.276C159.922 154.276 159.476 154.385 159.177 154.604C158.877 154.822 158.727 155.11 158.727 155.466C158.727 155.75 158.812 155.973 158.982 156.135C159.152 156.289 159.359 156.406 159.602 156.487C159.853 156.56 160.201 156.641 160.647 156.73C161.141 156.819 161.538 156.917 161.838 157.022C162.146 157.119 162.405 157.281 162.616 157.508C162.826 157.735 162.932 158.047 162.932 158.444C162.932 158.97 162.713 159.391 162.275 159.707C161.838 160.023 161.222 160.181 160.428 160.181ZM164.627 153.789H165.235V160.133H164.627V153.789ZM164.931 152.246C164.793 152.246 164.676 152.202 164.579 152.112C164.481 152.015 164.433 151.898 164.433 151.76C164.433 151.622 164.481 151.505 164.579 151.408C164.676 151.31 164.793 151.262 164.931 151.262C165.069 151.262 165.186 151.31 165.283 151.408C165.381 151.497 165.429 151.61 165.429 151.748C165.429 151.886 165.381 152.003 165.283 152.1C165.186 152.198 165.069 152.246 164.931 152.246ZM173.507 153.789V159.452C173.507 160.505 173.252 161.283 172.741 161.785C172.231 162.288 171.461 162.539 170.433 162.539C169.849 162.539 169.298 162.45 168.78 162.271C168.261 162.093 167.844 161.846 167.528 161.53L167.856 161.068C168.172 161.36 168.553 161.587 168.999 161.749C169.444 161.911 169.918 161.992 170.42 161.992C171.263 161.992 171.887 161.789 172.292 161.384C172.697 160.987 172.899 160.368 172.899 159.525V158.456C172.64 158.918 172.28 159.274 171.818 159.525C171.356 159.776 170.838 159.902 170.262 159.902C169.671 159.902 169.132 159.772 168.646 159.513C168.168 159.246 167.792 158.877 167.516 158.407C167.241 157.937 167.103 157.407 167.103 156.815C167.103 156.224 167.241 155.693 167.516 155.223C167.792 154.753 168.168 154.389 168.646 154.13C169.132 153.87 169.671 153.741 170.262 153.741C170.846 153.741 171.372 153.87 171.842 154.13C172.312 154.389 172.673 154.753 172.924 155.223V153.789H173.507ZM170.311 159.355C170.805 159.355 171.251 159.25 171.648 159.039C172.045 158.82 172.353 158.521 172.571 158.14C172.798 157.751 172.912 157.309 172.912 156.815C172.912 156.321 172.798 155.884 172.571 155.503C172.353 155.122 172.045 154.826 171.648 154.616C171.251 154.397 170.805 154.288 170.311 154.288C169.817 154.288 169.371 154.397 168.974 154.616C168.586 154.826 168.278 155.122 168.051 155.503C167.832 155.884 167.723 156.321 167.723 156.815C167.723 157.309 167.832 157.751 168.051 158.14C168.278 158.521 168.586 158.82 168.974 159.039C169.371 159.25 169.817 159.355 170.311 159.355ZM179.178 153.741C179.971 153.741 180.599 153.972 181.061 154.433C181.523 154.895 181.754 155.56 181.754 156.426V160.133H181.146V156.475C181.146 155.762 180.964 155.219 180.599 154.847C180.243 154.474 179.741 154.288 179.092 154.288C178.347 154.288 177.76 154.51 177.33 154.956C176.901 155.402 176.686 156.001 176.686 156.754V160.133H176.079V153.789H176.662V155.163C176.881 154.717 177.205 154.369 177.634 154.118C178.072 153.866 178.586 153.741 179.178 153.741Z" fill="#8A8A8A"/>
<path d="M83.926 138.992C82.9147 138.992 81.998 138.774 81.1757 138.339C80.3629 137.895 79.7202 137.286 79.2476 136.511C78.7845 135.726 78.5529 134.842 78.5529 133.859C78.5529 132.876 78.7845 131.997 79.2476 131.222C79.7202 130.438 80.3629 129.828 81.1757 129.394C81.998 128.949 82.9195 128.727 83.9402 128.727C84.8003 128.727 85.5753 128.879 86.2653 129.181C86.9647 129.483 87.5507 129.918 88.0232 130.485L86.5488 131.846C85.8778 131.071 85.046 130.684 84.0536 130.684C83.4393 130.684 82.8911 130.821 82.4091 131.095C81.9271 131.36 81.549 131.733 81.2749 132.215C81.0103 132.697 80.878 133.245 80.878 133.859C80.878 134.474 81.0103 135.022 81.2749 135.504C81.549 135.986 81.9271 136.364 82.4091 136.638C82.8911 136.903 83.4393 137.035 84.0536 137.035C85.046 137.035 85.8778 136.643 86.5488 135.858L88.0232 137.219C87.5507 137.796 86.9647 138.235 86.2653 138.538C85.5659 138.84 84.7861 138.992 83.926 138.992ZM95.8972 138.821L93.9833 136.057H93.8699H91.8709V138.821H89.5742V128.897H93.8699C94.7488 128.897 95.5097 129.044 96.1524 129.337C96.8045 129.63 97.3055 130.046 97.6552 130.584C98.0049 131.123 98.1797 131.761 98.1797 132.498C98.1797 133.236 98.0001 133.874 97.641 134.412C97.2913 134.942 96.7903 135.348 96.1382 135.632L98.364 138.821H95.8972ZM95.8547 132.498C95.8547 131.941 95.6751 131.515 95.3159 131.222C94.9568 130.92 94.4322 130.769 93.7423 130.769H91.8709V134.228H93.7423C94.4322 134.228 94.9568 134.077 95.3159 133.774C95.6751 133.472 95.8547 133.047 95.8547 132.498ZM107.683 136.978V138.821H99.9994V128.897H107.499V130.74H102.282V132.895H106.889V134.682H102.282V136.978H107.683ZM116.046 136.695H111.439L110.56 138.821H108.206L112.63 128.897H114.898L119.336 138.821H116.925L116.046 136.695ZM115.323 134.951L113.75 131.152L112.176 134.951H115.323ZM121.922 130.769H118.747V128.897H127.395V130.769H124.219V138.821H121.922V130.769ZM128.631 128.897H130.927V138.821H128.631V128.897ZM142.768 128.897L138.473 138.821H136.204L131.923 128.897H134.404L137.423 135.986L140.486 128.897H142.768ZM151.281 136.978V138.821H143.597V128.897H151.097V130.74H145.879V132.895H150.487V134.682H145.879V136.978H151.281ZM157.123 128.897H161.632C162.709 128.897 163.659 129.105 164.481 129.521C165.313 129.928 165.956 130.504 166.409 131.251C166.872 131.997 167.104 132.867 167.104 133.859C167.104 134.852 166.872 135.721 166.409 136.468C165.956 137.215 165.313 137.796 164.481 138.212C163.659 138.618 162.709 138.821 161.632 138.821H157.123V128.897ZM161.518 136.936C162.511 136.936 163.3 136.662 163.886 136.114C164.481 135.556 164.779 134.805 164.779 133.859C164.779 132.914 164.481 132.168 163.886 131.619C163.3 131.062 162.511 130.783 161.518 130.783H159.42V136.936H161.518ZM176.52 136.978V138.821H168.836V128.897H176.336V130.74H171.118V132.895H175.726V134.682H171.118V136.978H176.52ZM181.608 138.992C180.824 138.992 180.063 138.888 179.326 138.68C178.598 138.462 178.012 138.183 177.568 137.843L178.347 136.114C178.773 136.425 179.278 136.676 179.864 136.865C180.45 137.054 181.036 137.149 181.622 137.149C182.274 137.149 182.756 137.054 183.068 136.865C183.38 136.666 183.536 136.407 183.536 136.085C183.536 135.849 183.442 135.655 183.253 135.504C183.073 135.343 182.837 135.216 182.544 135.121C182.26 135.027 181.873 134.923 181.381 134.809C180.625 134.63 180.006 134.45 179.524 134.271C179.042 134.091 178.626 133.803 178.277 133.406C177.936 133.009 177.766 132.48 177.766 131.818C177.766 131.241 177.922 130.722 178.234 130.258C178.546 129.786 179.014 129.413 179.638 129.138C180.271 128.864 181.041 128.727 181.948 128.727C182.582 128.727 183.201 128.803 183.806 128.954C184.41 129.105 184.94 129.323 185.393 129.606L184.685 131.35C183.768 130.83 182.851 130.57 181.934 130.57C181.292 130.57 180.814 130.674 180.502 130.882C180.2 131.09 180.049 131.364 180.049 131.704C180.049 132.045 180.224 132.3 180.573 132.47C180.932 132.631 181.476 132.791 182.204 132.952C182.96 133.132 183.579 133.311 184.061 133.491C184.543 133.67 184.954 133.954 185.294 134.341C185.644 134.729 185.819 135.253 185.819 135.915C185.819 136.482 185.658 137.002 185.337 137.475C185.025 137.938 184.552 138.306 183.919 138.58C183.286 138.854 182.515 138.992 181.608 138.992ZM187.388 128.897H189.685V138.821H187.388V128.897ZM198.746 133.703H200.844V137.73C200.305 138.136 199.681 138.448 198.973 138.665C198.264 138.883 197.55 138.992 196.832 138.992C195.802 138.992 194.875 138.774 194.053 138.339C193.231 137.895 192.583 137.286 192.111 136.511C191.648 135.726 191.416 134.842 191.416 133.859C191.416 132.876 191.648 131.997 192.111 131.222C192.583 130.438 193.236 129.828 194.067 129.394C194.899 128.949 195.835 128.727 196.874 128.727C197.744 128.727 198.533 128.874 199.242 129.167C199.951 129.46 200.546 129.885 201.028 130.443L199.554 131.804C198.845 131.057 197.99 130.684 196.988 130.684C196.355 130.684 195.792 130.816 195.301 131.081C194.809 131.345 194.426 131.719 194.152 132.201C193.878 132.683 193.741 133.236 193.741 133.859C193.741 134.474 193.878 135.022 194.152 135.504C194.426 135.986 194.805 136.364 195.287 136.638C195.778 136.903 196.336 137.035 196.959 137.035C197.621 137.035 198.216 136.893 198.746 136.61V133.703ZM212.079 128.897V138.821H210.194L205.246 132.796V138.821H202.977V128.897H204.877L209.811 134.923V128.897H212.079Z" fill="#18CFAB"/>
<g filter="url(#filter0_d_2143_230)">
<path fill-rule="evenodd" clip-rule="evenodd" d="M204.855 95.9922L213.472 92.8915L190.312 80L197.064 105.87L202.121 98.1553L208.174 106L210.909 103.837L204.855 95.9922Z" fill="#363B3E"/>
<path d="M205.67 96.2302L213.642 93.362L214.676 92.9896L213.715 92.4546L190.556 79.5631L189.533 78.994L189.829 80.1263L196.581 105.997L196.865 107.087L197.483 106.145L202.154 99.0168L207.778 106.305L208.087 106.706L208.484 106.392L211.219 104.229L211.606 103.922L211.305 103.531L205.67 96.2302Z" stroke="white" stroke-opacity="0.8"/>
</g>
<defs>
<filter id="filter0_d_2143_230" x="185.754" y="75.9879" width="33.1268" height="36.3152" filterUnits="userSpaceOnUse" color-interpolation-filters="sRGB">
<feFlood flood-opacity="0" result="BackgroundImageFix"/>
<feColorMatrix in="SourceAlpha" type="matrix" values="0 0 0 0 0 0 0 0 0 0 0 0 0 0 0 0 0 0 127 0" result="hardAlpha"/>
<feOffset dy="1"/>
<feGaussianBlur stdDeviation="1.5"/>
<feColorMatrix type="matrix" values="0 0 0 0 0 0 0 0 0 0 0 0 0 0 0 0 0 0 0.25 0"/>
<feBlend mode="normal" in2="BackgroundImageFix" result="effect1_dropShadow_2143_230"/>
<feBlend mode="normal" in="SourceGraphic" in2="effect1_dropShadow_2143_230" result="shape"/>
</filter>
<clipPath id="clip0_2143_230">
<rect width="88" height="43" fill="white" transform="translate(101 46)"/>
</clipPath>
</defs>
</svg>
